<?xml version="1.0" standalone="no"?>
<!DOCTYPE svg PUBLIC "-//W3C//DTD SVG 20010904//EN"
 "http://www.w3.org/TR/2001/REC-SVG-20010904/DTD/svg10.dtd">
<svg version="1.0" xmlns="http://www.w3.org/2000/svg"
 width="820.000000pt" height="275.000000pt" viewBox="0 0 820.000000 275.000000"
 preserveAspectRatio="xMidYMid meet">

<g transform="translate(0.000000,275.000000) scale(0.100000,-0.100000)"
fill="#000000" stroke="none">
<path d="M1163 2330 c-510 -52 -923 -424 -1027 -926 -61 -294 0 -612 166 -866
117 -177 312 -344 498 -424 105 -46 144 -52 170 -29 18 16 20 31 20 136 l0
118 -89 -6 c-159 -10 -253 39 -312 165 -23 49 -50 85 -102 135 -79 75 -79 92
-1 84 57 -6 111 -45 165 -119 79 -109 171 -146 282 -114 54 16 57 18 67 59 7
23 22 59 36 79 l24 38 -22 4 c-13 3 -50 10 -83 17 -92 17 -199 66 -254 115
-94 85 -141 185 -160 343 -18 144 12 272 86 369 24 32 25 37 14 90 -15 74 -14
100 5 184 l16 71 62 -6 c47 -4 84 -17 163 -58 l103 -52 102 18 c116 20 321 17
419 -8 l57 -14 63 39 c80 47 176 80 225 76 36 -3 38 -5 51 -53 15 -60 17 -183
3 -220 -8 -22 -5 -33 24 -76 66 -94 81 -149 80 -289 -1 -107 -5 -137 -27 -206
-66 -201 -184 -286 -475 -340 l-23 -5 24 -32 c45 -59 50 -91 55 -317 2 -137 8
-220 15 -229 19 -22 86 -7 189 41 127 60 205 115 311 217 188 182 298 386 342
638 19 111 19 284 -1 398 -62 356 -293 667 -620 835 -184 95 -433 141 -641
120z"/>
<path d="M3253 1906 c-287 -66 -433 -307 -433 -716 0 -389 151 -615 451 -676
104 -21 325 -15 409 11 99 30 170 66 175 89 3 12 4 172 3 356 l-3 335 -240 0
-240 0 -3 -114 c-2 -73 1 -118 9 -127 7 -9 40 -14 97 -16 l87 -3 3 -120 c1
-66 -2 -127 -8 -135 -7 -12 -32 -15 -117 -15 -101 0 -112 2 -161 29 -104 58
-150 162 -159 357 -12 258 61 420 210 464 74 22 255 20 340 -4 48 -13 69 -15
75 -7 3 6 19 60 33 119 l26 108 -24 16 c-13 9 -54 25 -91 35 -90 26 -349 34
-439 14z"/>
<path d="M5157 1864 c-4 -4 -7 -306 -7 -670 l0 -664 23 -5 c12 -3 76 -4 142
-3 l120 3 3 288 2 287 195 0 195 0 0 -285 0 -285 23 -5 c12 -3 76 -4 142 -3
l120 3 0 670 0 670 -140 0 -140 0 -3 -247 -2 -248 -195 0 -195 0 -2 248 -3
247 -136 3 c-74 1 -138 -1 -142 -4z"/>
<path d="M7225 1858 c-3 -7 -4 -310 -3 -673 l3 -660 100 0 100 0 9 32 10 31
50 -28 c69 -39 155 -60 246 -60 235 0 336 125 356 441 12 193 -23 340 -101
427 -70 78 -118 97 -250 96 -90 0 -119 -4 -163 -22 -29 -12 -57 -22 -62 -22
-6 0 -11 92 -12 223 l-3 222 -138 3 c-104 2 -139 -1 -142 -10z m501 -644 c22
-11 41 -31 56 -62 20 -42 23 -61 23 -172 -1 -144 -21 -212 -70 -230 -39 -15
-125 -12 -178 6 l-47 16 2 212 3 211 50 17 c63 22 118 22 161 2z"/>
<path d="M4090 1829 c-62 -25 -100 -85 -100 -157 0 -63 30 -109 90 -140 111
-57 240 33 228 159 -11 107 -121 177 -218 138z"/>
<path d="M4530 1567 l0 -134 -57 -13 c-96 -21 -94 -18 -91 -123 l3 -92 71 -3
72 -3 4 -242 c3 -226 5 -245 26 -292 30 -65 73 -108 136 -137 44 -19 67 -23
166 -22 65 0 127 5 143 12 27 11 27 12 27 116 l0 104 -80 4 c-67 3 -83 7 -102
26 -22 22 -23 28 -23 225 l0 202 100 5 100 5 0 115 0 115 -100 5 -100 5 -3
128 -3 127 -144 0 -145 0 0 -133z"/>
<path d="M4007 1433 c-4 -3 -7 -206 -7 -449 0 -428 1 -444 19 -454 21 -11 229
-14 255 -4 14 5 16 55 16 460 l0 454 -138 0 c-76 0 -142 -3 -145 -7z"/>
<path d="M6247 1434 c-11 -12 -8 -623 4 -694 18 -111 62 -175 149 -213 72 -33
237 -36 331 -7 41 12 90 30 110 41 39 19 49 17 49 -12 0 -24 28 -31 120 -27
l75 3 3 458 2 458 -142 -3 -143 -3 -3 -328 -2 -328 -43 -19 c-41 -19 -138 -27
-171 -14 -37 14 -41 42 -46 369 l-5 320 -141 3 c-77 1 -143 -1 -147 -4z"/>
<path d="M530 669 c0 -5 5 -7 10 -4 6 3 10 8 10 11 0 2 -4 4 -10 4 -5 0 -10
-5 -10 -11z"/>
<path d="M575 630 c3 -5 10 -10 16 -10 5 0 9 5 9 10 0 6 -7 10 -16 10 -8 0
-12 -4 -9 -10z"/>
<path d="M620 571 c0 -12 6 -21 16 -21 9 0 14 7 12 17 -5 25 -28 28 -28 4z"/>
<path d="M672 504 c2 -11 11 -20 22 -22 13 -3 17 1 14 14 -2 11 -11 20 -22 22
-13 3 -17 -1 -14 -14z"/>
<path d="M750 456 c0 -8 6 -16 13 -19 19 -7 41 8 33 22 -10 16 -46 14 -46 -3z"/>
<path d="M940 460 c-11 -7 -12 -12 -3 -21 14 -14 46 -4 41 13 -6 16 -20 19
-38 8z"/>
<path d="M850 450 c-11 -7 -12 -12 -3 -21 14 -14 46 -4 41 13 -6 16 -20 19
-38 8z"/>
</g>
</svg>
